<svg width="280" height="280" viewBox="0 0 280 280" fill="none" xmlns="http://www.w3.org/2000/svg">
<path d="M97.165 143.067C97.165 162.719 81.2342 178.649 61.5825 178.649C41.9308 178.649 26 162.719 26 143.067C26 123.415 41.9308 107.484 61.5825 107.484C81.2342 107.484 97.165 123.415 97.165 143.067Z" fill="#4146CF"/>
<path d="M127.84 159.018L98.392 230.183L34.5889 166.38C34.5889 166.38 52.9737 118.527 72.6254 118.527C82.7633 118.527 88.5761 119.754 88.5761 119.754L127.84 159.018Z" fill="#4146CF"/>
<circle cx="122.926" cy="75.5825" r="35.5825" fill="#4146CF"/>
<path d="M243.792 133.876C237.751 139.917 147.466 230.185 147.466 230.185C147.466 230.185 105.628 187.12 97.7731 179.265C97.7731 179.265 179.574 97.4505 193.47 83.5547C207.366 69.6588 229.896 69.6589 243.792 83.5547C257.687 97.4505 257.687 119.98 243.792 133.876Z" fill="#009DBD"/>
<path d="M148.087 229.579C134.191 243.475 111.661 243.475 97.7656 229.579C83.8698 215.683 83.8698 193.153 97.7656 179.258C111.661 165.362 134.191 165.362 148.087 179.258C161.983 193.153 161.983 215.683 148.087 229.579Z" fill="#009DBD"/>
</svg>
