<svg width="62.820312" height="18.000000" viewBox="0 0 62.8203 18" fill="none" xmlns="http://www.w3.org/2000/svg" xmlns:xlink="http://www.w3.org/1999/xlink">
	<desc>
			Created with Pixso.
	</desc>
	<defs>
		<linearGradient id="paint_linear_43_3385_0" x1="60.541519" y1="-2.433197" x2="46.254612" y2="-2.433197" gradientUnits="userSpaceOnUse">
			<stop stop-color="#FFFFFF"/>
			<stop offset="1.000000" stop-color="#FFFFFF"/>
		</linearGradient>
	</defs>
	<path id="Vector" d="M0 0.00195312L5.89062 0.00195312C6.42969 0.00195312 8.03906 -0.183594 8.75 2.43945C9.28906 4.12695 10 6.75195 11.0703 10.6895L11.4297 10.6895C12.5 6.56445 13.3906 3.75195 13.75 2.43945C14.4688 -0.183594 16.25 0.00195312 16.9688 0.00195312L22.5 0.00195312L22.5 18L16.7891 18L16.7891 7.31445L16.4297 7.31445L13.3906 18L9.10938 18L6.07031 7.31445L5.53906 7.31445L5.53906 18L0 18L0 0.00195312ZM24.8203 0.00195312L30.5391 0.00195312L30.5391 10.6895L31.0703 10.6895L34.8281 1.87695C35.5391 0.189453 37.1484 0.00195312 37.1484 0.00195312L42.5 0.00195312L42.5 18L36.7891 18L36.7891 7.31445L36.4297 7.31445L32.6797 16.125C31.9688 17.8125 30.1797 18 30.1797 18L24.8203 18L24.8203 0.00195312ZM50.1797 12.5625L50.1797 18L44.8281 18L44.8281 8.62695L62.3281 8.62695C61.6094 10.877 59.1094 12.5625 56.2578 12.5625L50.1797 12.5625Z" fill="#FFFFFF" fill-opacity="1.000000" fill-rule="nonzero"/>
	<path id="Vector" d="M62.6875 7.50195C63.3984 4.12891 61.2578 0.00390625 56.6094 0.00390625L44.4688 0.00390625C44.8281 3.94141 48.0391 7.50195 51.4375 7.50195L62.6875 7.50195Z" fill="url(#paint_linear_43_3385_0)" fill-opacity="1.000000" fill-rule="nonzero"/>
</svg>
