<svg width="29.425781" height="31.369141" viewBox="0 0 29.4258 31.3691" fill="none" xmlns="http://www.w3.org/2000/svg" xmlns:xlink="http://www.w3.org/1999/xlink">
	<desc>
			Created with Pixso.
	</desc>
	<defs/>
	<path id="path5491" d="M23.3984 19.75C23.9102 19.9531 24.1055 20.7441 24.1445 21.0879C24.2266 21.7168 24.0469 21.9609 23.8516 21.9609C23.6562 21.9609 23.3789 21.7168 23.0859 21.2305C22.7891 20.7441 22.6719 20.1973 22.8281 19.9121C22.9258 19.7285 23.1445 19.6484 23.3984 19.75ZM20.4102 22.041C20.7266 22.041 21.0781 22.1836 21.3945 22.4668C22.0039 22.9941 22.1797 23.6035 21.8672 24.0488C21.6875 24.2715 21.3945 24.4141 21.0586 24.4141C20.7266 24.4141 20.3711 24.293 20.1367 24.0703C19.5859 23.582 19.4258 22.7715 19.7812 22.3262C19.918 22.1426 20.1367 22.041 20.4102 22.041ZM13.5273 27.9023C6.05469 27.9023 0 21.6562 0 13.9512C0 6.24609 6.05469 0 13.5273 0C21 0 27.0547 6.24609 27.0547 13.9512C27.0547 16.5664 26.3477 19.0195 25.1484 21.1094C25.1094 21.1699 25.0117 21.1504 24.9922 21.0684C24.5195 17.6406 22.4961 15.7559 19.5469 15.1875C19.2891 15.1465 19.25 14.9844 19.5859 14.9453C20.4883 14.8633 21.7656 14.8828 22.4336 15.0059C22.4766 14.6602 22.4961 14.2949 22.4961 13.9297C22.4961 8.83984 18.4844 4.70312 13.5469 4.70312C8.61328 4.70312 4.60156 8.83984 4.60156 13.9297C4.60156 19.0195 8.61328 23.1582 13.5469 23.1582L13.9609 23.1582C13.8203 22.334 13.7617 21.498 13.7852 20.6621C13.8047 20.0957 13.9219 20.0137 14.1562 20.459C15.3945 22.6699 17.168 24.6582 20.625 25.4492C23.457 26.0977 26.2891 26.8477 29.3359 30.8418C29.6133 31.1875 29.1992 31.5527 28.8867 31.2676C25.7773 28.4297 22.9453 27.4961 20.3711 27.4961C17.4805 27.5176 15.5156 27.9023 13.5273 27.9023Z" fill="#FF8C00" fill-opacity="1.000000" fill-rule="nonzero"/>
</svg>
