<svg width="74.667969" height="32.000000" viewBox="0 0 74.668 32" fill="none" xmlns="http://www.w3.org/2000/svg" xmlns:xlink="http://www.w3.org/1999/xlink">
	<desc>
			Created with Pixso.
	</desc>
	<defs>
		<clipPath id="clip43_3837">
			<rect id="Component 402" width="74.666664" height="32.000000" fill="white" fill-opacity="0"/>
		</clipPath>
	</defs>
	<rect id="Component 402" width="74.666664" height="32.000000" fill="#FFFFFF" fill-opacity="0"/>
	<g clip-path="url(#clip43_3837)">
		<path id="Vector" d="M26.8594 0.15625L21.0234 14.2461C21 14.2988 20.9961 14.3574 21.0039 14.4141C21.0117 14.4727 21.0391 14.5254 21.0742 14.5645L36.832 31.9238C36.8789 31.9727 36.9375 32 37 32C37.0625 32 37.1211 31.9727 37.1641 31.9238L52.9258 14.5664C52.9609 14.5254 52.9844 14.4727 52.9961 14.416C53.0039 14.3594 52.9961 14.2988 52.9766 14.2461L47.1406 0.158203C47.1211 0.111328 47.0898 0.0703125 47.0547 0.0429688C47.0156 0.015625 46.9688 0 46.9258 0L27.0742 0C27.0312 0 26.9844 0.0136719 26.9453 0.0410156C26.9102 0.0703125 26.8789 0.109375 26.8594 0.15625Z" fill="#50AF95" fill-opacity="1.000000" fill-rule="evenodd"/>
		<path id="Vector" d="M39.0234 15.6914C38.9102 15.7012 38.3242 15.7422 37.0234 15.7422C35.9844 15.7422 35.25 15.707 34.9922 15.6914C30.9844 15.4902 27.9922 14.6875 27.9922 13.7266C27.9922 12.7676 30.9844 11.9668 34.9922 11.7598L34.9922 14.8926C35.2539 14.916 36.0039 14.9668 37.0391 14.9668C38.2852 14.9668 38.9062 14.9062 39.0195 14.8945L39.0195 11.7617C43.0195 11.9668 46.0039 12.7695 46.0039 13.7266C46.0039 14.6855 43.0195 15.4883 39.0195 15.6914L39.0234 15.6914ZM39.0234 11.4375L39.0234 8.63477L44.6055 8.63477L44.6055 4.35938L29.4102 4.35938L29.4102 8.63477L34.9883 8.63477L34.9883 11.4375C30.4531 11.6777 27.043 12.709 27.043 13.9473C27.043 15.1855 30.4531 16.2168 34.9883 16.457L34.9883 25.4414L39.0234 25.4414L39.0234 16.4531C43.5469 16.2148 46.9531 15.1836 46.9531 13.9453C46.9531 12.709 43.5508 11.6777 39.0234 11.4375L39.0234 11.4375Z" fill="#FFFFFF" fill-opacity="1.000000" fill-rule="evenodd"/>
	</g>
</svg>
